<svg xmlns="http://www.w3.org/2000/svg" width="17" height="16" viewBox="0 0 17 16">
  <g id="그룹_358" data-name="그룹 358" transform="translate(761.314 -738.259) rotate(90)">
    <path id="패스_52" data-name="패스 52" d="M.329,16.683A1.355,1.355,0,0,1,0,15.865a.987.987,0,0,1,.329-.781L7.137,8.537.291,1.953a1,1,0,0,1-.29-.8,1.128,1.128,0,0,1,.329-.8A1.114,1.114,0,0,1,1.162,0a1.19,1.19,0,0,1,.792.353l7.7,7.4a1.134,1.134,0,0,1,.271.372,1.121,1.121,0,0,1,0,.818,1.134,1.134,0,0,1-.271.372L1.993,16.683A1.068,1.068,0,0,1,1.18,17a1.464,1.464,0,0,1-.851-.316" transform="translate(738.259 744.313)" fill="#e4ebf1"/>
    <path id="패스_53" data-name="패스 53" d="M.329,16.683A1.355,1.355,0,0,1,0,15.865a.987.987,0,0,1,.329-.781L7.137,8.537.291,1.953a1,1,0,0,1-.29-.8,1.128,1.128,0,0,1,.329-.8A1.114,1.114,0,0,1,1.162,0a1.19,1.19,0,0,1,.792.353l7.7,7.4a1.134,1.134,0,0,1,.271.372,1.121,1.121,0,0,1,0,.818,1.134,1.134,0,0,1-.271.372L1.993,16.683A1.068,1.068,0,0,1,1.18,17a1.464,1.464,0,0,1-.851-.316" transform="translate(744.259 744.313)" fill="#e4ebf1"/>
  </g>
</svg>
