<?xml version="1.0" encoding="utf-8"?>
<!-- Generator: Adobe Illustrator 26.3.1, SVG Export Plug-In . SVG Version: 6.00 Build 0)  -->
<svg version="1.1" id="Layer_1" xmlns="http://www.w3.org/2000/svg" xmlns:xlink="http://www.w3.org/1999/xlink" x="0px" y="0px"
	 viewBox="0 0 12.9 22.9" style="enable-background:new 0 0 12.9 22.9;" xml:space="preserve">
<style type="text/css">
	.st0{fill:#9BA9B4;}
</style>
<path class="st0" d="M0.4,22.4C0.2,22.1,0,21.7,0,21.3s0.1-0.8,0.4-1l8.8-8.8L0.4,2.6C0.1,2.4,0,2,0,1.6c0-0.4,0.2-0.8,0.4-1.1
	C0.8,0.1,1.1,0,1.5,0c0.4,0,0.7,0.2,1,0.5l10,10c0.2,0.2,0.3,0.3,0.4,0.5c0.1,0.2,0.1,0.4,0.1,0.5c0,0.2,0,0.4-0.1,0.5
	c-0.1,0.2-0.2,0.3-0.4,0.5l-9.9,9.9c-0.3,0.3-0.7,0.4-1,0.4C1.1,22.8,0.8,22.7,0.4,22.4z"/>
</svg>
