<?xml version="1.0" encoding="utf-8"?>
<!-- Generator: Adobe Illustrator 26.3.1, SVG Export Plug-In . SVG Version: 6.00 Build 0)  -->
<svg version="1.1" id="Layer_1" xmlns="http://www.w3.org/2000/svg" xmlns:xlink="http://www.w3.org/1999/xlink" x="0px" y="0px"
	 viewBox="0 0 42.8 22.8" style="enable-background:new 0 0 42.8 22.8;" xml:space="preserve">
<style type="text/css">
	.st0{fill:#9BA9B4;}
</style>
<path class="st0" d="M32.4,22.4c-0.3,0.3-0.6,0.4-1,0.4s-0.8-0.2-1-0.4c-0.3-0.3-0.5-0.7-0.5-1s0.2-0.7,0.5-1l8.8-8.9l-8.8-8.9
	c-0.3-0.3-0.4-0.6-0.4-1s0.2-0.8,0.4-1C30.6,0.1,31,0,31.4,0s0.8,0.1,1.1,0.4l9.9,9.9c0.3,0.3,0.5,0.6,0.5,1s-0.1,0.8-0.5,1
	L32.4,22.4z M10.4,22.3l-9.9-9.9C0.2,12.1,0,11.8,0,11.4s0.2-0.8,0.5-1l9.9-10C10.7,0.1,11,0,11.4,0s0.8,0.2,1,0.4
	c0.3,0.3,0.5,0.6,0.5,1.1c0,0.4-0.2,0.8-0.5,1.1l-8.7,8.8l8.8,8.9c0.3,0.3,0.4,0.6,0.4,1s-0.2,0.8-0.4,1c-0.3,0.3-0.6,0.5-1.1,0.5
	C11,22.8,10.6,22.7,10.4,22.3z M13.4,13.1c-0.5,0-0.9-0.2-1.2-0.5c-0.3-0.4-0.5-0.8-0.5-1.2s0.2-0.9,0.5-1.2
	c0.4-0.3,0.8-0.5,1.2-0.5s0.9,0.2,1.2,0.5c0.3,0.4,0.5,0.8,0.5,1.2s-0.2,0.9-0.5,1.2C14.3,13,13.9,13.1,13.4,13.1z M21.4,13.1
	c-0.5,0-0.9-0.2-1.2-0.5c-0.3-0.4-0.5-0.8-0.5-1.2s0.2-0.9,0.5-1.2c0.4-0.3,0.8-0.5,1.2-0.5s0.9,0.2,1.2,0.5
	c0.3,0.4,0.5,0.8,0.5,1.2s-0.2,0.9-0.5,1.2C22.3,13,21.9,13.1,21.4,13.1z M29.4,13.1c-0.5,0-0.9-0.2-1.2-0.5
	c-0.3-0.4-0.5-0.8-0.5-1.2s0.2-0.9,0.5-1.2c0.4-0.3,0.8-0.5,1.2-0.5s0.9,0.2,1.2,0.5c0.4,0.4,0.5,0.8,0.5,1.2s-0.2,0.9-0.5,1.2
	C30.3,13,29.9,13.1,29.4,13.1z"/>
</svg>
